<svg width="158" height="157" viewBox="0 0 158 157" fill="none" xmlns="http://www.w3.org/2000/svg">
<g clip-path="url(#clip0_119_603)">
<path d="M104.218 41.5951H78.2846C77.7169 41.5969 77.1562 41.4693 76.6453 41.222C76.1344 40.9748 75.6868 40.6145 75.3363 40.1685V40.1685C74.9795 39.7183 74.7303 39.1927 74.6077 38.6318C74.485 38.071 74.4921 37.4895 74.6285 36.9318C77.0186 26.936 77.0186 16.5189 74.6283 6.52315C74.4921 5.96544 74.485 5.38405 74.6077 4.8232C74.7304 4.26235 74.9795 3.73683 75.3363 3.28662C75.6867 2.84059 76.1344 2.48026 76.6453 2.23304C77.1562 1.98582 77.7169 1.85822 78.2846 1.85996H104.218C105.113 1.86253 105.978 2.18236 106.66 2.76247C107.341 3.34258 107.794 4.14531 107.938 5.02769C109.645 16.0957 109.645 27.3594 107.938 38.4274C107.794 39.3098 107.341 40.1125 106.66 40.6926C105.978 41.2728 105.113 41.5926 104.218 41.5951V41.5951Z" fill="#E6E6E6"/>
<path d="M78.2847 3.80826C78.012 3.80735 77.7428 3.86854 77.4974 3.98717C77.252 4.10581 77.0369 4.27877 76.8685 4.49289C76.6952 4.71228 76.5742 4.96826 76.5148 5.24136C76.4554 5.51446 76.4592 5.79748 76.5259 6.0689C78.9875 16.3633 78.9875 27.0918 76.526 37.3862C76.4593 37.6576 76.4555 37.9405 76.5148 38.2136C76.5742 38.4866 76.6951 38.7426 76.8685 38.9619L76.8686 38.9621C77.0369 39.1762 77.252 39.3492 77.4974 39.4679C77.7428 39.5866 78.012 39.6478 78.2847 39.6468H104.218C104.648 39.647 105.064 39.4947 105.392 39.2172C105.72 38.9397 105.939 38.5549 106.009 38.1314C107.686 27.2595 107.686 16.1955 106.009 5.3237C105.939 4.90018 105.72 4.5154 105.392 4.23788C105.064 3.96036 104.648 3.80811 104.218 3.80826L78.2847 3.80826Z" fill="white"/>
<path d="M98.5586 13.1765H84.95C84.4327 13.176 83.9367 12.9705 83.5709 12.6053C83.2051 12.2401 82.9993 11.7449 82.9988 11.2283V10.467C82.9993 9.95046 83.2051 9.45525 83.5709 9.09001C83.9367 8.72477 84.4327 8.51933 84.95 8.51877H98.5586C99.0759 8.51933 99.5719 8.72477 99.9377 9.09001C100.303 9.45525 100.509 9.95046 100.51 10.467V11.2283C100.509 11.7449 100.303 12.2401 99.9377 12.6053C99.5719 12.9705 99.0759 13.176 98.5586 13.1765Z" fill="#E6E6E6"/>
<path d="M98.5586 22.7965H84.95C84.4327 22.7959 83.9367 22.5905 83.5709 22.2252C83.2051 21.86 82.9993 21.3648 82.9988 20.8483V20.0869C82.9993 19.5704 83.2051 19.0752 83.5709 18.71C83.9367 18.3447 84.4327 18.1393 84.95 18.1387H98.5586C99.0759 18.1393 99.5719 18.3447 99.9377 18.71C100.303 19.0752 100.509 19.5704 100.51 20.0869V20.8483C100.509 21.3648 100.303 21.86 99.9377 22.2252C99.5719 22.5905 99.0759 22.7959 98.5586 22.7965Z" fill="#E6E6E6"/>
<path d="M98.5586 32.4165H84.95C84.4327 32.4159 83.9367 32.2104 83.5709 31.8452C83.2051 31.48 82.9993 30.9848 82.9988 30.4682V29.7069C82.9993 29.1904 83.2051 28.6952 83.5709 28.3299C83.9367 27.9647 84.4327 27.7592 84.95 27.7587H98.5586C99.0759 27.7592 99.5719 27.9647 99.9377 28.3299C100.303 28.6952 100.509 29.1904 100.51 29.7069V30.4682C100.509 30.9848 100.303 31.48 99.9377 31.8452C99.5719 32.2104 99.0759 32.4159 98.5586 32.4165V32.4165Z" fill="#E6E6E6"/>
<path d="M153 66.2735H127.067C126.499 66.2753 125.938 66.1476 125.428 65.9004C124.917 65.6532 124.469 65.2929 124.119 64.8469V64.8469C123.762 64.3967 123.513 63.8711 123.39 63.3102C123.267 62.7494 123.274 62.1679 123.411 61.6102C125.801 51.6144 125.801 41.1973 123.411 31.2015C123.274 30.6438 123.267 30.0624 123.39 29.5016C123.513 28.9407 123.762 28.4152 124.118 27.965C124.469 27.519 124.917 27.1587 125.428 26.9114C125.938 26.6642 126.499 26.5366 127.067 26.5384H153C153.895 26.5409 154.761 26.8607 155.442 27.4409C156.123 28.021 156.576 28.8237 156.72 29.7061C158.427 40.7741 158.427 52.0378 156.72 63.1058C156.576 63.9882 156.123 64.7909 155.442 65.371C154.761 65.9511 153.895 66.271 153 66.2735Z" fill="#E6E6E6"/>
<path d="M127.067 28.4867C126.794 28.4857 126.525 28.5469 126.279 28.6656C126.034 28.7842 125.819 28.9572 125.651 29.1713C125.477 29.3907 125.356 29.6466 125.297 29.9197C125.238 30.1928 125.241 30.4759 125.308 30.7473C127.77 41.0417 127.77 51.7701 125.308 62.0646C125.241 62.3359 125.238 62.6189 125.297 62.892C125.356 63.165 125.477 63.421 125.651 63.6403L125.651 63.6404C125.819 63.8546 126.034 64.0276 126.279 64.1463C126.525 64.265 126.794 64.3262 127.067 64.3252H153C153.43 64.3254 153.846 64.1731 154.174 63.8956C154.502 63.6181 154.721 63.2333 154.791 62.8098C156.468 51.9379 156.468 40.8739 154.791 30.0021C154.721 29.5786 154.502 29.1938 154.174 28.9163C153.846 28.6387 153.43 28.4865 153 28.4866L127.067 28.4867Z" fill="white"/>
<path d="M101.291 94.3614H75.3577C74.7654 94.3632 74.1804 94.2301 73.6474 93.9721C73.1144 93.7142 72.6473 93.3383 72.2817 92.8729C71.9097 92.4035 71.6498 91.8555 71.5219 91.2706C71.3939 90.6857 71.4013 90.0794 71.5435 89.4978C73.9276 79.527 73.9275 69.1358 71.5433 59.165C71.4012 58.5834 71.3939 57.9772 71.5218 57.3923C71.6498 56.8075 71.9096 56.2595 72.2817 55.7901C72.6473 55.3247 73.1143 54.9488 73.6474 54.6908C74.1804 54.4329 74.7654 54.2998 75.3577 54.3016H101.291C102.225 54.3043 103.128 54.6381 103.838 55.2434C104.549 55.8487 105.022 56.6863 105.172 57.6069C106.881 68.6913 106.881 79.9717 105.172 91.0561C105.022 91.9767 104.549 92.8143 103.838 93.4196C103.128 94.0249 102.225 94.3587 101.291 94.3614V94.3614Z" fill="#F2F2F2"/>
<path d="M147.341 42.7257H133.732C133.215 42.7251 132.719 42.5197 132.353 42.1544C131.987 41.7892 131.781 41.294 131.781 40.7774V40.0161C131.781 39.4996 131.987 39.0044 132.353 38.6391C132.719 38.2739 133.215 38.0685 133.732 38.0679H147.341C147.858 38.0685 148.354 38.2739 148.72 38.6391C149.086 39.0044 149.291 39.4996 149.292 40.0161V40.7775C149.291 41.294 149.086 41.7892 148.72 42.1544C148.354 42.5197 147.858 42.7251 147.341 42.7257V42.7257Z" fill="#E6E6E6"/>
<path d="M147.341 52.3456H133.732C133.215 52.3451 132.719 52.1396 132.353 51.7744C131.987 51.4091 131.781 50.9139 131.781 50.3974V49.6361C131.781 49.1195 131.987 48.6243 132.353 48.2591C132.719 47.8938 133.215 47.6884 133.732 47.6879H147.341C147.858 47.6884 148.354 47.8938 148.72 48.2591C149.086 48.6243 149.291 49.1195 149.292 49.6361V50.3974C149.291 50.9139 149.086 51.4091 148.72 51.7744C148.354 52.1396 147.858 52.3451 147.341 52.3456V52.3456Z" fill="#E6E6E6"/>
<path d="M88.3968 81.666C92.5278 81.666 95.8767 78.3222 95.8767 74.1975C95.8767 70.0728 92.5278 66.7291 88.3968 66.7291C84.2658 66.7291 80.9169 70.0728 80.9169 74.1975C80.9169 78.3222 84.2658 81.666 88.3968 81.666Z" fill="white"/>
<path d="M91.9741 73.2234H89.3724V70.6256C89.3724 70.3673 89.2696 70.1195 89.0866 69.9368C88.9037 69.7541 88.6555 69.6515 88.3967 69.6515C88.138 69.6515 87.8898 69.7541 87.7069 69.9368C87.5239 70.1195 87.4211 70.3673 87.4211 70.6256V73.2234H84.8194C84.5606 73.2234 84.3125 73.326 84.1295 73.5087C83.9465 73.6914 83.8438 73.9392 83.8438 74.1975C83.8438 74.4559 83.9465 74.7036 84.1295 74.8863C84.3125 75.069 84.5606 75.1717 84.8194 75.1717H87.4211V77.7694C87.4211 78.0277 87.5239 78.2755 87.7069 78.4582C87.8898 78.6409 88.138 78.7435 88.3967 78.7435C88.6555 78.7435 88.9037 78.6409 89.0866 78.4582C89.2696 78.2755 89.3724 78.0277 89.3724 77.7694V75.1717H91.9741C92.2329 75.1717 92.481 75.069 92.664 74.8863C92.847 74.7036 92.9497 74.4559 92.9497 74.1975C92.9497 73.9392 92.847 73.6914 92.664 73.5087C92.481 73.326 92.2329 73.2234 91.9741 73.2234V73.2234Z" fill="#E6E6E6"/>
<path d="M97.828 5.52017H84.169C83.781 5.51973 83.4091 5.36564 83.1347 5.0917C82.8603 4.81776 82.706 4.44635 82.7056 4.05895V1.46122C82.706 1.07381 82.8603 0.702401 83.1347 0.428463C83.4091 0.154526 83.781 0.000436599 84.169 0H97.828C98.216 0.000436599 98.588 0.154526 98.8624 0.428463C99.1367 0.702401 99.291 1.07381 99.2915 1.46122V4.05895C99.291 4.44635 99.1367 4.81776 98.8624 5.0917C98.588 5.36564 98.216 5.51973 97.828 5.52017Z" fill="#CCCCCC"/>
<path d="M147.261 30.5233H133.602C133.214 30.5228 132.842 30.3687 132.567 30.0948C132.293 29.8209 132.138 29.4494 132.138 29.062V26.4643C132.138 26.0769 132.293 25.7055 132.567 25.4316C132.842 25.1576 133.214 25.0035 133.602 25.0031H147.261C147.649 25.0035 148.02 25.1576 148.295 25.4316C148.569 25.7055 148.724 26.0769 148.724 26.4643V29.062C148.724 29.4494 148.569 29.8209 148.295 30.0948C148.02 30.3687 147.649 30.5228 147.261 30.5233Z" fill="#CCCCCC"/>
<path d="M28.8127 152.961H32.7998L34.0463 137.606H28.812L28.8127 152.961Z" fill="#FFB8B8"/>
<path d="M27.7958 151.661L35.6477 151.661H35.648C36.3051 151.661 36.9558 151.79 37.5629 152.041C38.17 152.292 38.7217 152.66 39.1863 153.124C39.651 153.588 40.0195 154.139 40.271 154.745C40.5225 155.351 40.6519 156.001 40.6519 156.657V156.819L27.796 156.82L27.7958 151.661Z" fill="#2F2E41"/>
<path d="M7.34855 152.961H11.3357L13.2326 137.606H7.3479L7.34855 152.961Z" fill="#FFB8B8"/>
<path d="M6.33167 151.661L14.1836 151.661H14.1839C14.841 151.661 15.4917 151.79 16.0988 152.041C16.7059 152.292 17.2575 152.66 17.7222 153.124C18.1869 153.588 18.5554 154.139 18.8069 154.745C19.0584 155.351 19.1878 156.001 19.1878 156.657V156.819L6.33191 156.82L6.33167 151.661Z" fill="#2F2E41"/>
<path d="M8.05594 148.11C7.64923 148.11 7.25742 147.957 6.95835 147.682V147.682C6.7978 147.536 6.6685 147.359 6.57821 147.161C6.48791 146.964 6.43849 146.75 6.43289 146.533L4.83392 89.3142L27.5375 94.9812L34.5425 115.964C35.4458 118.663 35.8368 121.507 35.6955 124.349L34.8257 144.688C34.8058 145.105 34.626 145.498 34.3235 145.786C34.0211 146.073 33.6192 146.234 33.2014 146.233H29.3935C29.0005 146.232 28.6212 146.089 28.3252 145.831C28.0292 145.572 27.8364 145.216 27.7821 144.828L25.0604 122.376C24.8226 120.625 24.209 118.945 23.2614 117.452L17.9053 108.985C17.8695 108.928 17.8171 108.884 17.7552 108.859C17.6933 108.833 17.625 108.827 17.5596 108.842C17.4942 108.856 17.4349 108.89 17.3898 108.94C17.3447 108.989 17.316 109.052 17.3077 109.118L13.1044 146.489C13.0593 146.868 12.8817 147.219 12.6029 147.48C12.3241 147.741 11.9619 147.896 11.5802 147.917L8.14851 148.107C8.11764 148.109 8.08683 148.11 8.05594 148.11Z" fill="#2F2E41"/>
<path d="M23.7594 52.2685C28.1708 52.2685 31.747 48.6979 31.747 44.2932C31.747 39.8885 28.1708 36.3178 23.7594 36.3178C19.348 36.3178 15.7718 39.8885 15.7718 44.2932C15.7718 48.6979 19.348 52.2685 23.7594 52.2685Z" fill="#FFB8B8"/>
<path d="M27.4287 97.3083C27.2913 97.3081 27.1544 97.2907 27.0213 97.2566H27.021L4.49528 91.4897C4.09254 91.3868 3.74462 91.1336 3.52306 90.7824C3.3015 90.4312 3.22312 90.0085 3.30406 89.6014L8.47729 61.7762C8.79959 60.1678 9.50804 58.6615 10.5418 57.3867C11.5756 56.1119 12.9038 55.1066 14.4124 54.4573C15.8823 53.8077 17.4898 53.5294 19.0929 53.6469C20.6961 53.7644 22.2456 54.2741 23.6047 55.1311C23.9201 55.3276 24.2378 55.5417 24.5487 55.7678C25.8004 56.6898 26.8212 57.8888 27.5309 59.2707C28.2407 60.6526 28.6202 62.18 28.6395 63.7329L29.0509 95.6617C29.0537 95.8765 29.0138 96.0896 28.9336 96.2889C28.8534 96.4881 28.7344 96.6696 28.5836 96.8227C28.4327 96.9757 28.253 97.0975 28.0548 97.1808C27.8566 97.2642 27.6438 97.3075 27.4287 97.3083V97.3083Z" fill="#F1EC40"/>
<path d="M6.81303 97.6355C6.54432 97.2407 6.36558 96.7918 6.2894 96.3206C6.21322 95.8493 6.24146 95.3671 6.37212 94.9079C6.50278 94.4487 6.73269 94.0237 7.04564 93.6628C7.3586 93.302 7.74701 93.014 8.18349 92.8192L7.18156 81.2588L12.491 84.132L12.6285 94.6695C12.9076 95.4233 12.9001 96.2532 12.6073 97.0019C12.3146 97.7505 11.757 98.366 11.0402 98.7316C10.3234 99.0972 9.49711 99.1875 8.71802 98.9855C7.93894 98.7835 7.26113 98.3032 6.81304 97.6355H6.81303Z" fill="#FFB8B8"/>
<path d="M8.70988 91.2903C8.56007 91.2901 8.41087 91.2712 8.26573 91.2341C7.95357 91.1547 7.66873 90.9924 7.44134 90.7645C7.21396 90.5367 7.05249 90.2517 6.97401 89.9397L4.36475 79.5866C3.45289 75.9706 3.88758 72.1471 5.58796 68.8272L11.0544 58.1499C11.4 56.8716 12.2349 55.78 13.3792 55.1107C14.5234 54.4414 15.8853 54.2479 17.1711 54.572C17.812 54.7336 18.4143 55.0206 18.9433 55.4164C19.4722 55.8122 19.9172 56.3089 20.2524 56.8777C20.5946 57.4547 20.8183 58.0938 20.9107 58.7579C21.003 59.4221 20.9621 60.0979 20.7904 60.7461L13.0088 78.1203L13.1012 88.5227C13.1036 88.8897 12.9931 89.2486 12.7846 89.5508C12.5761 89.8531 12.2798 90.0841 11.9355 90.2127L9.33141 91.1783C9.13256 91.2523 8.92208 91.2902 8.70988 91.2903Z" fill="#F1EC40"/>
<path d="M45.9585 93.3832C45.4835 93.329 45.0262 93.1715 44.6188 92.9217C44.2113 92.672 43.8637 92.336 43.6004 91.9376C43.337 91.5392 43.1644 91.088 43.0946 90.6157C43.0248 90.1435 43.0596 89.6617 43.1965 89.2043L33.7674 82.4212L39.412 80.2775L47.5006 87.0475C48.2549 87.328 48.88 87.875 49.2573 88.5849C49.6347 89.2949 49.7381 90.1183 49.548 90.8993C49.3579 91.6802 48.8875 92.3644 48.226 92.8223C47.5644 93.2801 46.7576 93.4797 45.9585 93.3832H45.9585Z" fill="#FFB8B8"/>
<path d="M41.0225 88.43C40.7445 88.4298 40.4703 88.3651 40.2216 88.2411L30.6606 83.4622C27.3211 81.7933 24.7022 78.9702 23.291 75.5179L18.7519 64.4158C18.007 63.3202 17.7231 61.9763 17.9615 60.6737C18.1998 59.3712 18.9413 58.2143 20.026 57.4525C20.568 57.072 21.1804 56.803 21.8275 56.6612C22.4747 56.5194 23.1436 56.5076 23.7954 56.6266C24.4547 56.745 25.0841 56.9928 25.6468 57.3558C26.2096 57.7188 26.6946 58.1897 27.0738 58.7412L35.1863 75.964L43.1429 82.6799C43.4231 82.9175 43.6234 83.2352 43.7169 83.5901C43.8103 83.9451 43.7924 84.3201 43.6654 84.6645L42.6996 87.2649C42.5735 87.606 42.3457 87.9002 42.0469 88.108C41.7466 88.3176 41.389 88.43 41.0225 88.43V88.43Z" fill="#F1EC40"/>
<path d="M22.0821 52.3906C22.5065 52.576 23.3756 49.1995 22.9863 48.5242C22.4073 47.5199 22.4416 47.5271 22.0572 46.8626C21.6729 46.1982 21.5869 45.2887 22.0846 44.7041C22.5823 44.1194 23.7341 44.197 23.9612 44.93C23.8151 43.5377 25.1944 42.4185 26.5606 42.104C27.9269 41.7894 29.368 41.9847 30.7418 41.7048C32.3362 41.38 33.995 40.0456 33.3589 38.2951C33.2497 38.0036 33.0863 37.7355 32.8772 37.5047C32.1423 36.6796 31.1142 36.3273 30.109 35.9867C28.0178 35.278 25.8695 34.5604 23.6626 34.6386C21.8442 34.7336 20.0929 35.3557 18.6231 36.4289C17.1533 37.5022 16.0288 38.9799 15.387 40.6813C15.235 41.107 15.1171 41.5441 15.0347 41.9884C14.2772 46.0553 16.6425 50.0667 20.4841 51.6153L22.0821 52.3906Z" fill="#2F2E41"/>
<path opacity="0.2" d="M12.6508 88.7587L12.832 78.0662L18.5047 66.6781L13.9517 78.3678L12.6508 88.7587Z" fill="black"/>
<path d="M64.0923 115.593L40.144 105.658C39.6191 105.442 39.1504 105.11 38.7736 104.686C38.3968 104.262 38.1218 103.757 37.9696 103.211C37.8131 102.659 37.785 102.078 37.8872 101.513C37.9895 100.948 38.2195 100.414 38.5597 99.9511C44.608 91.636 48.611 82.0162 50.2448 71.8698C50.3333 71.3026 50.5502 70.7629 50.879 70.292C51.2078 69.8211 51.6398 69.4312 52.1423 69.1522C52.6372 68.8745 53.1892 68.7133 53.756 68.6807C54.3228 68.6481 54.8896 68.7451 55.4132 68.9642L79.3614 78.899C80.1873 79.2444 80.8636 79.8713 81.2698 80.668C81.676 81.4647 81.7858 82.3795 81.5796 83.2495C78.9025 94.1243 74.5742 104.526 68.7449 114.093C68.273 114.853 67.5463 115.42 66.6942 115.695C65.8422 115.97 64.9201 115.934 64.0923 115.593Z" fill="#E6E6E6"/>
<path d="M54.6646 70.7634C54.4131 70.6581 54.141 70.6114 53.8688 70.627C53.5966 70.6425 53.3315 70.7199 53.0937 70.8531C52.8493 70.9893 52.6392 71.1793 52.4794 71.4088C52.3197 71.6382 52.2144 71.901 52.1716 72.1772C50.489 82.6268 46.3664 92.5341 40.1374 101.098C39.9715 101.323 39.8592 101.583 39.8091 101.857C39.759 102.132 39.7723 102.415 39.8481 102.684L39.8482 102.684C39.9214 102.946 40.0535 103.189 40.2345 103.392C40.4155 103.596 40.6406 103.755 40.8928 103.859L64.841 113.794C65.238 113.959 65.6808 113.978 66.0904 113.847C66.5 113.716 66.8499 113.445 67.0778 113.081C72.8036 103.683 77.0552 93.466 79.6849 82.784C79.7825 82.3659 79.7283 81.9267 79.532 81.5448C79.3357 81.1628 79.0099 80.8628 78.6128 80.6982L54.6646 70.7634Z" fill="white"/>
<path d="M67.4159 92.8789L54.8489 87.6655C54.3714 87.4668 53.9923 87.0871 53.7949 86.6096C53.5974 86.1322 53.5977 85.5961 53.7957 85.1189L54.0882 84.4158C54.2872 83.939 54.6675 83.5605 55.1457 83.3634C55.6238 83.1662 56.1608 83.1665 56.6387 83.3642L69.2058 88.5776C69.6833 88.7763 70.0624 89.156 70.2598 89.6334C70.4573 90.1109 70.457 90.647 70.259 91.1242L69.9664 91.8273C69.7674 92.304 69.3871 92.6825 68.909 92.8797C68.4308 93.0768 67.8939 93.0766 67.4159 92.8789V92.8789Z" fill="#F1EC40"/>
<path d="M63.7193 101.763L51.1522 96.5492C50.6747 96.3505 50.2956 95.9708 50.0982 95.4933C49.9007 95.0159 49.901 94.4798 50.099 94.0026L50.3916 93.2995C50.5906 92.8227 50.9709 92.4442 51.449 92.2471C51.9272 92.0499 52.4641 92.0502 52.9421 92.2479L65.5092 97.4613C65.9867 97.66 66.3657 98.0397 66.5632 98.5171C66.7606 98.9945 66.7603 99.5307 66.5624 100.008L66.2698 100.711C66.0708 101.188 65.6905 101.566 65.2123 101.763C64.7342 101.961 64.1972 101.96 63.7193 101.763V101.763Z" fill="#F1EC40"/>
<path d="M72.4516 80.3937C72.2635 80.3936 72.0772 80.3572 71.9029 80.2864L59.2397 75.1745C58.8802 75.0289 58.5932 74.7468 58.4417 74.3902C58.2901 74.0336 58.2865 73.6315 58.4315 73.2722L59.4067 70.8638C59.5522 70.5045 59.8347 70.2177 60.192 70.0664C60.5493 69.9151 60.9522 69.9117 61.312 70.0569L73.9752 75.1688C74.3347 75.3144 74.6218 75.5965 74.7733 75.9531C74.9248 76.3097 74.9285 76.7118 74.7835 77.0711L73.8082 79.4795C73.6987 79.7493 73.5111 79.9803 73.2695 80.1431C73.0279 80.3059 72.7431 80.3932 72.4516 80.3937V80.3937Z" fill="#CCCCCC"/>
<path d="M45.8552 157H0.325214C0.238962 157 0.156247 156.966 0.0952577 156.905C0.0342682 156.844 0 156.761 0 156.675C0 156.589 0.0342682 156.507 0.0952577 156.446C0.156247 156.385 0.238962 156.351 0.325214 156.351H45.8552C45.9414 156.351 46.0242 156.385 46.0852 156.446C46.1461 156.507 46.1804 156.589 46.1804 156.675C46.1804 156.761 46.1461 156.844 46.0852 156.905C46.0242 156.966 45.9414 157 45.8552 157Z" fill="#CCCCCC"/>
</g>
<defs>
<clipPath id="clip0_119_603">
<rect width="158" height="157" fill="white"/>
</clipPath>
</defs>
</svg>
