<svg width="20" height="20" viewBox="0 0 20 20" fill="none" xmlns="http://www.w3.org/2000/svg">
<path d="M14 6L14.9104 6.4138C15.0829 6.03432 15.0019 5.58765 14.7071 5.29289C14.4124 4.99814 13.9657 4.91714 13.5862 5.08963L14 6ZM8.5 8.5L8.0862 7.58963C7.86609 7.68968 7.68968 7.86609 7.58963 8.0862L8.5 8.5ZM6 14L5.08963 13.5862C4.91714 13.9657 4.99814 14.4124 5.29289 14.7071C5.58765 15.0019 6.03432 15.0829 6.4138 14.9104L6 14ZM11.5 11.5L11.9138 12.4104C12.1339 12.3103 12.3103 12.1339 12.4104 11.9138L11.5 11.5ZM10 18C5.58172 18 2 14.4183 2 10H0C0 15.5228 4.47715 20 10 20V18ZM2 10C2 5.58172 5.58172 2 10 2V0C4.47715 0 0 4.47715 0 10H2ZM10 2C14.4183 2 18 5.58172 18 10H20C20 4.47715 15.5228 0 10 0V2ZM18 10C18 14.4183 14.4183 18 10 18V20C15.5228 20 20 15.5228 20 10H18ZM13.5862 5.08963L8.0862 7.58963L8.9138 9.41037L14.4138 6.91037L13.5862 5.08963ZM7.58963 8.0862L5.08963 13.5862L6.91037 14.4138L9.41037 8.9138L7.58963 8.0862ZM6.4138 14.9104L11.9138 12.4104L11.0862 10.5896L5.5862 13.0896L6.4138 14.9104ZM12.4104 11.9138L14.9104 6.4138L13.0896 5.5862L10.5896 11.0862L12.4104 11.9138Z" fill="#D8D8D8"/>
</svg>
