<svg width="16" height="18" viewBox="0 0 16 18" fill="none" xmlns="http://www.w3.org/2000/svg">
<path d="M3.35254 15.7451L2.88195 14.8627L3.35254 15.7451ZM13.3525 10.4117L13.8231 11.2941L13.3525 10.4117ZM13.3525 7.58822L13.8231 6.70586H13.8231L13.3525 7.58822ZM3.35254 2.25488L2.88195 3.13724L3.35254 2.25488ZM14.7826 9.41895L13.8746 8.99995L14.7826 9.41895ZM14.7826 8.58103L13.8746 9.00002L14.7826 8.58103ZM1.18509 15.913L0.370184 16.4926L1.18509 15.913ZM1.87207 16.3251L1.99999 15.3334H1.99999L1.87207 16.3251ZM1.18509 2.08704L0.370184 1.50745L0.370184 1.50745L1.18509 2.08704ZM1.87207 1.67487L1.99999 2.66666L1.87207 1.67487ZM0 3.66663V14.3333H2V3.66663H0ZM3.82313 16.6274L13.8231 11.2941L12.882 9.52939L2.88195 14.8627L3.82313 16.6274ZM13.8231 6.70586L3.82313 1.37253L2.88195 3.13724L12.882 8.47057L13.8231 6.70586ZM13.8231 11.2941C14.2353 11.0742 14.6063 10.8775 14.8862 10.6936C15.1574 10.5154 15.4987 10.2538 15.6906 9.83794L13.8746 8.99995C13.9257 8.88923 13.9817 8.89487 13.7879 9.02216C13.6029 9.14376 13.3292 9.29085 12.882 9.52939L13.8231 11.2941ZM12.882 8.47057C13.3292 8.7091 13.6029 8.8562 13.7879 8.9778C13.9816 9.1051 13.9257 9.11073 13.8746 9.00002L15.6906 8.16204C15.4987 7.74614 15.1574 7.48456 14.8862 7.30635C14.6063 7.12243 14.2354 6.92572 13.8231 6.70586L12.882 8.47057ZM15.6906 9.83794C15.9359 9.30622 15.9359 8.69375 15.6906 8.16204L13.8746 9.00002V8.99995L15.6906 9.83794ZM0 14.3333C0 14.7535 -0.00100076 15.1377 0.0273102 15.4466C0.0553439 15.7525 0.121984 16.1436 0.370184 16.4926L2 15.3334C2.06311 15.4221 2.0372 15.4631 2.01896 15.2641C2.001 15.0681 2 14.7927 2 14.3333H0ZM2.88195 14.8627C2.47648 15.079 2.23312 15.2077 2.05179 15.2841C1.86776 15.3616 1.89192 15.3194 1.99999 15.3334L1.74415 17.3169C2.16895 17.3717 2.5453 17.2464 2.8283 17.1272C3.114 17.0068 3.45251 16.8251 3.82313 16.6274L2.88195 14.8627ZM0.370184 16.4926C0.693295 16.9469 1.19132 17.2456 1.74415 17.3169L1.99999 15.3334L2 15.3334L0.370184 16.4926ZM2 3.66663C2 3.20724 2.001 2.93182 2.01896 2.73586C2.0372 2.5369 2.0631 2.57791 2 2.66663L0.370184 1.50745C0.121996 1.8564 0.0553477 2.24742 0.0273108 2.55331C-0.001001 2.86219 0 3.24645 0 3.66663H2ZM3.82313 1.37253C3.45248 1.17485 3.11398 0.993134 2.82826 0.872773C2.54522 0.753543 2.1689 0.628306 1.74415 0.683089L1.99999 2.66666C1.89196 2.68059 1.86783 2.6384 2.05183 2.71591C2.23314 2.79229 2.47651 2.921 2.88195 3.13724L3.82313 1.37253ZM2 2.66663L1.99999 2.66666L1.74415 0.683089C1.19134 0.754389 0.693308 1.05313 0.370184 1.50745L2 2.66663Z" fill="black"/>
</svg>
