<svg width="20" height="20" viewBox="0 0 20 20" fill="none" xmlns="http://www.w3.org/2000/svg">
<path d="M8.16667 7.25L8.68116 6.39251C8.37223 6.20715 7.98748 6.20229 7.67397 6.3798C7.36046 6.55731 7.16667 6.88973 7.16667 7.25H8.16667ZM8.16667 12.75H7.16667C7.16667 13.1103 7.36046 13.4427 7.67397 13.6202C7.98748 13.7977 8.37223 13.7929 8.68116 13.6075L8.16667 12.75ZM12.75 10L13.2645 10.8575C13.5657 10.6768 13.75 10.3513 13.75 10C13.75 9.64874 13.5657 9.32323 13.2645 9.14251L12.75 10ZM10 17.25C5.99594 17.25 2.75 14.0041 2.75 10H0.75C0.75 15.1086 4.89137 19.25 10 19.25V17.25ZM2.75 10C2.75 5.99594 5.99594 2.75 10 2.75V0.75C4.89137 0.75 0.75 4.89137 0.75 10H2.75ZM10 2.75C14.0041 2.75 17.25 5.99594 17.25 10H19.25C19.25 4.89137 15.1086 0.75 10 0.75V2.75ZM17.25 10C17.25 14.0041 14.0041 17.25 10 17.25V19.25C15.1086 19.25 19.25 15.1086 19.25 10H17.25ZM7.16667 7.25V12.75H9.16667V7.25H7.16667ZM8.68116 13.6075L13.2645 10.8575L12.2355 9.14251L7.65217 11.8925L8.68116 13.6075ZM13.2645 9.14251L8.68116 6.39251L7.65217 8.10749L12.2355 10.8575L13.2645 9.14251Z" fill="black"/>
</svg>
