<svg width="24" height="24" viewBox="0 0 24 24" fill="none" xmlns="http://www.w3.org/2000/svg">
<path d="M9.65889 0C4.34021 0 0 4.34021 0 9.65889C0 14.9776 4.34021 19.3178 9.65889 19.3178C11.8392 19.3178 13.8481 18.5804 15.468 17.3532L21.7065 23.5904C21.8292 23.7182 21.9763 23.8203 22.139 23.8906C22.3017 23.961 22.4768 23.9981 22.654 23.9999C22.8313 24.0017 23.0071 23.9682 23.1712 23.9012C23.3353 23.8342 23.4844 23.7351 23.6098 23.6098C23.7351 23.4844 23.8342 23.3353 23.9012 23.1712C23.9682 23.0071 24.0017 22.8313 23.9999 22.654C23.9981 22.4768 23.961 22.3017 23.8906 22.139C23.8203 21.9763 23.7182 21.8292 23.5904 21.7065L17.3532 15.468C18.5804 13.8481 19.3178 11.8392 19.3178 9.65889C19.3178 4.34021 14.9776 0 9.65889 0ZM9.65889 2.66452C13.5376 2.66452 16.6533 5.78023 16.6533 9.65889C16.6533 11.5212 15.9299 13.2031 14.7537 14.4532C14.6393 14.5361 14.5387 14.6367 14.4558 14.7511C13.2054 15.9288 11.5225 16.6533 9.65889 16.6533C5.78022 16.6533 2.66452 13.5376 2.66452 9.65889C2.66452 5.78023 5.78022 2.66452 9.65889 2.66452Z" fill="white"/>
</svg>
